PathFileType	4	(X/Y/Z)	E:\Qualisys_Data\Carbon_Farble_Plate\Data\Amateur_Runner\S1\T1\S1T1V11_c3d.trc
DataRate	CameraRate	NumFrames	NumMarkers	Units	OrigDataRate	OrigDataStartFrame	OrigNumFrames
200.000000	200.000000	4	39	mm	200.000000	81	326
Frame#	Time	LSHO			RSHO			LICST			RICST			LASIS			LHEEL			RASIS			LTROC			RTROC			SACR			LTH1			LSK4			LTH2			LTH3			RHM5			LSK2			LTH4			RTH1			LTOE			RTH2			RTH3			RTH4			LLEP			RLEP			LSK1			LSK3			RSK1			LHM5			RSK2			LFT1			RSK3			RSK4			LLME			RLME			RTOE			RHEEL			RFT1			RFT2			LFT2			
		X1	Y1	Z1	X2	Y2	Z2	X3	Y3	Z3	X4	Y4	Z4	X5	Y5	Z5	X6	Y6	Z6	X7	Y7	Z7	X8	Y8	Z8	X9	Y9	Z9	X10	Y10	Z10	X11	Y11	Z11	X12	Y12	Z12	X13	Y13	Z13	X14	Y14	Z14	X15	Y15	Z15	X16	Y16	Z16	X17	Y17	Z17	X18	Y18	Z18	X19	Y19	Z19	X20	Y20	Z20	X21	Y21	Z21	X22	Y22	Z22	X23	Y23	Z23	X24	Y24	Z24	X25	Y25	Z25	X26	Y26	Z26	X27	Y27	Z27	X28	Y28	Z28	X29	Y29	Z29	X30	Y30	Z30	X31	Y31	Z31	X32	Y32	Z32	X33	Y33	Z33	X34	Y34	Z34	X35	Y35	Z35	X36	Y36	Z36	X37	Y37	Z37	X38	Y38	Z38	X39	Y39	Z39	

82	0.405	-1408.966674804688	1557.416748046875	-568.6289672851562	-1343.009155273438	1544.21044921875	-254.2340545654297	-1388.121215820312	1083.61962890625	-539.3765258789062	-1384.857421875	1098.007446289062	-247.0680999755859	-1347.322021484375	1043.260864257812	-511.8459777832031	-1253.511474609375	122.9237060546875	-416.2334899902344	-1353.181518554688	1045.688354492188	-251.1867065429688	-1438.036499023438	960.1400146484376	-562.9696655273438	-1484.19189453125	982.0747680664062	-225.9572601318359	-1505.056274414062	1113.427734375	-390.2300109863281	-1269.804443359375	855.3211059570312	-522.4602661132812	-1275.236083984375	289.9031372070312	-455.5334777832031	-1339.341430664062	817.8489379882812	-552.7357177734375	-1231.853393554688	759.861328125	-504.0562133789062	-1870.54296875	125.1619262695312	-255.4194183349609	-1282.45361328125	385.3818664550781	-498.1395874023438	-1308.463134765625	726.7940063476562	-522.1937866210938	-1409.739501953125	820.7576904296875	-239.2921905517578	-1002.885314941406	182.8713836669922	-432.8446655273438	-1481.801391601562	849.1548461914062	-216.2605438232422	-1450.024780273438	727.9241943359375	-249.0926666259766	-1522.615112304688	759.2014770507812	-232.7489776611328	-1228.63134765625	596.7445068359375	-491.5287475585938	-1569.8779296875	590.641845703125	-268.3963623046875	-1200.143920898438	388.1643981933594	-495.6259765625	-1199.719360351562	286.8788452148438	-485.4637756347656	-1694.330078125	444.5257263183594	-248.6713714599609	-1062.580078125	146.8987884521484	-488.3296203613281	-1756.305419921875	495.2525939941406	-260.6405944824219	-1232.957397460938	103.7893905639648	-386.8236999511719	-1754.805297851562	365.0117492675781	-257.1546630859375	-1814.667846679688	414.4028015136719	-281.5248107910156	-1211.402954101562	157.6308746337891	-469.3606872558594	-1862.570434570312	279.4806518554688	-260.2035522460938	-1811.361450195312	82.89605712890625	-329.2536315917969	-1920.497680664062	312.6321411132812	-303.0530090332031	-1937.483154296875	293.3523559570312	-339.1874084472656	-1942.6171875	293.8370056152344	-280.8846740722656	-1240.9560546875	94.40444183349608	-439.5829467773438
83	0.41	-1392.148193359375	1556.627197265625	-569.5615844726562	-1326.808837890625	1544.748779296875	-255.1367645263672	-1369.818359375	1083.400390625	-538.6673583984375	-1368.103393554688	1098.578247070312	-247.0209197998047	-1330.491943359375	1043.276977539062	-511.5913391113281	-1226.098754882812	121.0654144287109	-414.1768188476562	-1335.873413085938	1046.103759765625	-251.1529541015625	-1421.83154296875	959.55810546875	-562.1001586914062	-1466.448608398438	982.2156982421876	-225.143798828125	-1488.103271484375	1113.268920898438	-389.7819213867188	-1254.302124023438	852.0747680664062	-522.3663940429688	-1254.34521484375	287.1425170898438	-455.1172790527344	-1324.681518554688	815.8565673828125	-553.4987182617188	-1216.334106445312	756.6766967773438	-504.6042175292969	-1861.178588867188	131.9947204589844	-254.4334564208984	-1264.263061523438	382.4824829101562	-497.6847229003906	-1295.119384765625	724.0367431640625	-523.3660278320312	-1391.442626953125	821.047119140625	-239.5347137451172	-978.5546264648438	188.7665863037109	-432.8143005371094	-1463.722534179688	849.3185424804688	-215.9706115722656	-1431.717651367188	728.3457641601562	-249.6327819824219	-1504.232055664062	759.4137573242188	-232.1918029785156	-1214.741577148438	594.2982177734375	-491.0902099609375	-1552.26806640625	590.5327758789062	-267.8251037597656	-1181.409912109375	387.2227783203125	-495.3697814941406	-1178.847778320312	286.4837951660156	-485.6441650390625	-1678.23046875	447.48291015625	-246.3769683837891	-1036.404907226562	149.4482879638672	-488.1419372558594	-1739.96533203125	499.1609191894531	-260.1827087402344	-1205.787475585938	102.3073501586914	-386.8171691894531	-1741.460205078125	369.0549011230469	-256.4375915527344	-1801.19140625	419.9235229492188	-281.3746337890625	-1186.338012695312	156.0247650146484	-468.9160766601562	-1852.781494140625	286.3796081542969	-260.2864379882812	-1802.729614257812	88.90628814697266	-328.0665893554688	-1910.544921875	318.9260559082031	-302.5811767578125	-1928.158813476562	299.4945068359375	-339.1169128417969	-1933.167358398438	300.5240478515625	-280.6426391601562	-1214.052124023438	92.19418334960938	-439.554443359375
84	0.415	-1375.950561523438	1555.693359375	-571.0075073242188	-1310.484252929688	1544.920654296875	-255.6872406005859	-1353.884887695312	1082.203247070312	-539.0164184570312	-1351.182739257812	1098.88134765625	-247.073974609375	-1312.900756835938	1042.264770507812	-511.4472351074219	-1200.717529296875	117.9233016967773	-414.5718078613281	-1318.791137695312	1046.461791992188	-250.5113677978516	-1405.12353515625	958.2110595703124	-561.495361328125	-1449.358276367188	981.9678344726562	-224.6067352294922	-1471.255859375	1112.569702148438	-389.5255737304688	-1238.0810546875	848.7703857421875	-522.0708618164062	-1234.123168945312	284.5889892578125	-454.8814086914062	-1309.854125976562	813.2811279296875	-554.3878173828125	-1202.275512695312	752.8246459960938	-504.7181091308594	-1851.657104492188	138.6985473632812	-252.7972564697266	-1246.624755859375	379.0966491699219	-496.7805480957031	-1281.65625	721.1055908203125	-524.8267211914062	-1373.606689453125	820.9428100585938	-239.9316253662109	-955.5863647460938	194.2493896484375	-432.9249267578125	-1444.591918945312	848.594970703125	-215.4681091308594	-1413.403442382812	728.1355590820312	-250.5723876953125	-1485.752807617188	758.6832275390625	-232.0856781005859	-1201.00634765625	591.775634765625	-490.1750793457031	-1533.893310546875	589.9494018554688	-268.1832885742188	-1163.599243164062	386.1161499023438	-495.1730041503906	-1158.443969726562	285.4370727539062	-485.7834777832031	-1664.142211914062	449.8728332519531	-246.4250335693359	-1011.871337890625	152.0394287109375	-487.533203125	-1724.130859375	502.6878967285156	-260.1782531738281	-1180.594848632812	100.8518295288086	-386.4244995117188	-1729.4736328125	372.9408874511719	-255.6885986328125	-1786.794921875	425.3904418945312	-281.4841613769531	-1162.0966796875	154.8397521972656	-468.9129028320312	-1842.744506835938	293.0039367675781	-259.6215209960938	-1792.669677734375	95.35651397705078	-326.3229064941406	-1898.963500976562	326.3431701660156	-302.4314575195312	-1917.221557617188	306.2556457519531	-338.552978515625	-1923.252807617188	307.1332092285156	-280.45263671875	-1188.53564453125	90.09276580810548	-439.1802062988281
85	0.42	-1359.4912109375	1554.27978515625	-571.6306762695312	-1293.301147460938	1544.726440429688	-256.5230102539062	-1337.117431640625	1081.12060546875	-538.5899047851562	-1334.987670898438	1098.93701171875	-246.70849609375	-1296.436401367188	1041.784301757812	-511.0287475585938	-1177.363647460938	117.4756546020508	-414.4985656738281	-1301.61181640625	1046.622680664062	-250.5635070800781	-1388.301513671875	956.5484008789062	-560.5797119140625	-1431.695922851562	981.5745239257812	-223.9064178466797	-1455.057495117188	1111.929077148438	-389.6473999023438	-1223.16015625	845.2717895507812	-521.690673828125	-1214.125732421875	281.9693603515625	-454.3753967285156	-1295.12109375	810.641357421875	-555.137939453125	-1188.755004882812	748.880615234375	-504.4771118164062	-1841.737426757812	145.6854858398438	-251.5755310058594	-1228.889282226562	376.6670227050781	-496.3539428710938	-1267.485229492188	717.5974731445312	-526.5069580078125	-1355.502197265625	820.3020629882812	-241.3992004394531	-933.8968505859376	199.1912536621094	-432.827392578125	-1426.438598632812	847.6942749023438	-215.2651214599609	-1394.748779296875	727.6541748046875	-252.0042114257812	-1466.86083984375	757.6339721679688	-232.2224884033203	-1186.937866210938	589.67578125	-489.1025695800781	-1514.956665039062	588.8997192382812	-267.6951599121094	-1145.9033203125	385.319580078125	-495.2152404785156	-1139.231079101562	284.7954406738281	-485.5517272949219	-1649.130981445312	451.5354309082031	-245.6105499267578	-988.9014892578124	154.9784851074219	-487.831298828125	-1708.255493164062	506.4638061523438	-260.6950988769531	-1156.25146484375	100.1606979370117	-386.2578125	-1716.381225585938	376.3287963867188	-255.2325592041016	-1773.111450195312	430.5082702636719	-281.4764099121094	-1139.258544921875	153.7603759765625	-469.3885803222656	-1831.469848632812	300.0231323242188	-259.6204528808594	-1782.58251953125	101.2451400756836	-324.6604614257812	-1888.350341796875	333.4258422851562	-302.5327758789062	-1906.630615234375	312.5887451171875	-338.3916015625	-1912.901733398438	314.3813171386719	-280.6224975585938	-1164.220458984375	88.56524658203125	-438.9848022460938
